<?xml version="1.0" encoding="utf-8"?>
<!-- Generated by Mocodo 4.3.3 -->
<svg width="904" height="834" viewBox="0 0 904 834" xmlns="http://www.w3.org/2000/svg">
<rect x="0" y="0" width="904" height="834" fill="#FFFFFF" stroke="none" stroke-width="0"/>

<!-- Association COMPOSER -->
<g>
	<line x1="228" y1="193" x2="72" y2="53" stroke="#000000" stroke-width="1"/>
	<line x1="72" y1="193" x2="72" y2="53" stroke="#000000" stroke-width="1"/>
	<g>
		<path d="M97 27 a14 14 90 0 1 14 14 V53 h-78 V41 a14 14 90 0 1 14 -14" fill="#FFFFFF" stroke="#FFFFFF" stroke-width="0"/>
		<path d="M111 53 v12 a14 14 90 0 1 -14 14 H47 a14 14 90 0 1 -14 -14 V53 H78" fill="#FFFFFF" stroke="#FFFFFF" stroke-width="0"/>
		<rect x="33" y="27" width="78" height="52" fill="none" rx="14" stroke="#000000" stroke-width="1.5"/>
		<line x1="33" y1="53" x2="111" y2="53" stroke="#000000" stroke-width="1"/>
		<text x="40" y="45.6" fill="#000000" font-family="Trebuchet MS" font-size="14">Composer</text>
	</g>
	<text x="167.41" y="132" fill="#000000" font-family="Verdana" font-size="12">1,N</text>
	<text x="77" y="141" fill="#000000" font-family="Verdana" font-size="12">1,N</text>
</g>

<!-- Association VENDRE -->
<g>
	<line x1="383" y1="193" x2="228" y2="53" stroke="#000000" stroke-width="1"/>
	<line x1="228" y1="193" x2="228" y2="53" stroke="#000000" stroke-width="1"/>
	<g>
		<path d="M249 27 a14 14 90 0 1 14 14 V53 h-70 V41 a14 14 90 0 1 14 -14" fill="#FFFFFF" stroke="#FFFFFF" stroke-width="0"/>
		<path d="M263 53 v12 a14 14 90 0 1 -14 14 H207 a14 14 90 0 1 -14 -14 V53 H70" fill="#FFFFFF" stroke="#FFFFFF" stroke-width="0"/>
		<rect x="193" y="27" width="70" height="52" fill="none" rx="14" stroke="#000000" stroke-width="1.5"/>
		<line x1="193" y1="53" x2="263" y2="53" stroke="#000000" stroke-width="1"/>
		<text x="205" y="45.6" fill="#000000" font-family="Trebuchet MS" font-size="14">Vendre</text>
		<text x="200" y="71.6" fill="#000000" font-family="Trebuchet MS" font-size="14">ven_prix</text>
	</g>
	<text x="294" y="147.44" fill="#000000" font-family="Verdana" font-size="12">0,N</text>
	<text x="233" y="132" fill="#000000" font-family="Verdana" font-size="12">0,N</text>
</g>

<!-- Association CATEGORISER -->
<g>
	<line x1="228" y1="193" x2="527" y2="53" stroke="#000000" stroke-width="1"/>
	<line x1="668" y1="53" x2="527" y2="53" stroke="#000000" stroke-width="1"/>
	<g>
		<path d="M558 27 a14 14 90 0 1 14 14 V53 h-90 V41 a14 14 90 0 1 14 -14" fill="#FFFFFF" stroke="#FFFFFF" stroke-width="0"/>
		<path d="M572 53 v12 a14 14 90 0 1 -14 14 H496 a14 14 90 0 1 -14 -14 V53 H90" fill="#FFFFFF" stroke="#FFFFFF" stroke-width="0"/>
		<rect x="482" y="27" width="90" height="52" fill="none" rx="14" stroke="#000000" stroke-width="1.5"/>
		<line x1="482" y1="53" x2="572" y2="53" stroke="#000000" stroke-width="1"/>
		<text x="490" y="45.6" fill="#000000" font-family="Trebuchet MS" font-size="14">Categoriser</text>
	</g>
	<text x="294" y="177.77" fill="#000000" font-family="Verdana" font-size="12">1,N</text>
	<text x="585" y="70" fill="#000000" font-family="Verdana" font-size="12">0,N</text>
</g>

<!-- Association LOCALISER_PDV -->
<g>
	<line x1="383" y1="193" x2="527" y2="193" stroke="#000000" stroke-width="1"/>
	<line x1="668" y1="193" x2="527" y2="193" stroke="#000000" stroke-width="1"/>
	<g>
		<path d="M563 167 a14 14 90 0 1 14 14 V193 h-100 V181 a14 14 90 0 1 14 -14" fill="#FFFFFF" stroke="#FFFFFF" stroke-width="0"/>
		<path d="M577 193 v12 a14 14 90 0 1 -14 14 H491 a14 14 90 0 1 -14 -14 V193 H100" fill="#FFFFFF" stroke="#FFFFFF" stroke-width="0"/>
		<rect x="477" y="167" width="100" height="52" fill="none" rx="14" stroke="#000000" stroke-width="1.5"/>
		<line x1="477" y1="193" x2="577" y2="193" stroke="#000000" stroke-width="1"/>
		<text x="484" y="185.6" fill="#000000" font-family="Trebuchet MS" font-size="14">Localiser pdv</text>
	</g>
	<text x="450" y="210" fill="#000000" font-family="Verdana" font-size="12">0,1</text>
	<text x="582" y="210" fill="#000000" font-family="Verdana" font-size="12">0,N</text>
</g>

<!-- Association LOCALISER_BRASSERIE -->
<g>
	<line x1="383" y1="455" x2="827" y2="193" stroke="#000000" stroke-width="1"/>
	<line x1="668" y1="193" x2="827" y2="193" stroke="#000000" stroke-width="1"/>
	<g>
		<path d="M881 167 a14 14 90 0 1 14 14 V193 h-136 V181 a14 14 90 0 1 14 -14" fill="#FFFFFF" stroke="#FFFFFF" stroke-width="0"/>
		<path d="M895 193 v12 a14 14 90 0 1 -14 14 H773 a14 14 90 0 1 -14 -14 V193 H136" fill="#FFFFFF" stroke="#FFFFFF" stroke-width="0"/>
		<rect x="759" y="167" width="136" height="52" fill="none" rx="14" stroke="#000000" stroke-width="1.5"/>
		<line x1="759" y1="193" x2="895" y2="193" stroke="#000000" stroke-width="1"/>
		<text x="767" y="185.6" fill="#000000" font-family="Trebuchet MS" font-size="14">Localiser brasserie</text>
	</g>
	<text x="458" y="426.12" fill="#000000" font-family="Verdana" font-size="12">0,1</text>
	<text x="732" y="210" fill="#000000" font-family="Verdana" font-size="12">0,N</text>
</g>

<!-- Association BRASSER -->
<g>
	<line x1="228" y1="193" x2="72" y2="315" stroke="#000000" stroke-width="1"/>
	<line x1="383" y1="455" x2="72" y2="315" stroke="#000000" stroke-width="1"/>
	<g>
		<path d="M89 289 a14 14 90 0 1 14 14 V315 h-62 V303 a14 14 90 0 1 14 -14" fill="#FFFFFF" stroke="#FFFFFF" stroke-width="0"/>
		<path d="M103 315 v12 a14 14 90 0 1 -14 14 H55 a14 14 90 0 1 -14 -14 V315 H62" fill="#FFFFFF" stroke="#FFFFFF" stroke-width="0"/>
		<rect x="41" y="289" width="62" height="52" fill="none" rx="14" stroke="#000000" stroke-width="1.5"/>
		<line x1="41" y1="315" x2="103" y2="315" stroke="#000000" stroke-width="1"/>
		<text x="49" y="307.6" fill="#000000" font-family="Trebuchet MS" font-size="14">Brasser</text>
	</g>
	<text x="141" y="238.56" fill="#000000" font-family="Verdana" font-size="12">1,1</text>
	<text x="286" y="436.96" fill="#000000" font-family="Verdana" font-size="12">1,N</text>
</g>

<!-- Association ILLUSTRER_BRASSERIE -->
<g>
	<line x1="383" y1="455" x2="228" y2="315" stroke="#000000" stroke-width="1"/>
	<line x1="668" y1="455" x2="228" y2="315" stroke="#000000" stroke-width="1"/>
	<g>
		<path d="M279 289 a14 14 90 0 1 14 14 V315 h-130 V303 a14 14 90 0 1 14 -14" fill="#FFFFFF" stroke="#FFFFFF" stroke-width="0"/>
		<path d="M293 315 v12 a14 14 90 0 1 -14 14 H177 a14 14 90 0 1 -14 -14 V315 H130" fill="#FFFFFF" stroke="#FFFFFF" stroke-width="0"/>
		<rect x="163" y="289" width="130" height="52" fill="none" rx="14" stroke="#000000" stroke-width="1.5"/>
		<line x1="163" y1="315" x2="293" y2="315" stroke="#000000" stroke-width="1"/>
		<text x="171" y="307.6" fill="#000000" font-family="Trebuchet MS" font-size="14">Illustrer brasserie</text>
	</g>
	<text x="286" y="402.21" fill="#000000" font-family="Verdana" font-size="12">0,N</text>
	<text x="594" y="454.57" fill="#000000" font-family="Verdana" font-size="12">0,N</text>
</g>

<!-- Association POSSEDER -->
<g>
	<line x1="383" y1="455" x2="383" y2="315" stroke="#000000" stroke-width="1"/>
	<line x1="383" y1="193" x2="383" y2="315" stroke="#000000" stroke-width="1"/>
	<g>
		<path d="M405 289 a14 14 90 0 1 14 14 V315 h-72 V303 a14 14 90 0 1 14 -14" fill="#FFFFFF" stroke="#FFFFFF" stroke-width="0"/>
		<path d="M419 315 v12 a14 14 90 0 1 -14 14 H361 a14 14 90 0 1 -14 -14 V315 H72" fill="#FFFFFF" stroke="#FFFFFF" stroke-width="0"/>
		<rect x="347" y="289" width="72" height="52" fill="none" rx="14" stroke="#000000" stroke-width="1.5"/>
		<line x1="347" y1="315" x2="419" y2="315" stroke="#000000" stroke-width="1"/>
		<text x="354" y="307.6" fill="#000000" font-family="Trebuchet MS" font-size="14">Posseder</text>
	</g>
	<text x="388" y="358" fill="#000000" font-family="Verdana" font-size="12">0,N</text>
	<text x="388" y="281" fill="#000000" font-family="Verdana" font-size="12">0,1</text>
</g>

<!-- Association ILLUSTRER_BIERE -->
<g>
	<line x1="228" y1="193" x2="527" y2="315" stroke="#000000" stroke-width="1"/>
	<line x1="668" y1="455" x2="527" y2="315" stroke="#000000" stroke-width="1"/>
	<g>
		<path d="M565 289 a14 14 90 0 1 14 14 V315 h-104 V303 a14 14 90 0 1 14 -14" fill="#FFFFFF" stroke="#FFFFFF" stroke-width="0"/>
		<path d="M579 315 v12 a14 14 90 0 1 -14 14 H489 a14 14 90 0 1 -14 -14 V315 H104" fill="#FFFFFF" stroke="#FFFFFF" stroke-width="0"/>
		<rect x="475" y="289" width="104" height="52" fill="none" rx="14" stroke="#000000" stroke-width="1.5"/>
		<line x1="475" y1="315" x2="579" y2="315" stroke="#000000" stroke-width="1"/>
		<text x="482" y="307.6" fill="#000000" font-family="Trebuchet MS" font-size="14">Illustrer biere</text>
	</g>
	<text x="294" y="213.08" fill="#000000" font-family="Verdana" font-size="12">0,N</text>
	<text x="594" y="418.3" fill="#000000" font-family="Verdana" font-size="12">0,N</text>
</g>

<!-- Association EVALUER -->
<g>
	<line x1="668" y1="754" x2="827" y2="315" stroke="#000000" stroke-width="1"/>
	<line x1="228" y1="193" x2="827" y2="315" stroke="#000000" stroke-width="1"/>
	<g>
		<path d="M845 289 a14 14 90 0 1 14 14 V315 h-64 V303 a14 14 90 0 1 14 -14" fill="#FFFFFF" stroke="#FFFFFF" stroke-width="0"/>
		<path d="M859 315 v12 a14 14 90 0 1 -14 14 H809 a14 14 90 0 1 -14 -14 V315 H64" fill="#FFFFFF" stroke="#FFFFFF" stroke-width="0"/>
		<rect x="795" y="289" width="64" height="52" fill="none" rx="14" stroke="#000000" stroke-width="1.5"/>
		<line x1="795" y1="315" x2="859" y2="315" stroke="#000000" stroke-width="1"/>
		<text x="803" y="307.6" fill="#000000" font-family="Trebuchet MS" font-size="14">Evaluer</text>
	</g>
	<text x="670.55" y="675" fill="#000000" font-family="Verdana" font-size="12">1,1</text>
	<text x="294" y="198.98" fill="#000000" font-family="Verdana" font-size="12">0,N</text>
</g>

<!-- Association FAVORI_BIERE -->
<g>
	<line x1="228" y1="649" x2="72" y2="455" stroke="#000000" stroke-width="1"/>
	<line x1="228" y1="193" x2="72" y2="455" stroke="#000000" stroke-width="1"/>
	<g>
		<path d="M104 429 a14 14 90 0 1 14 14 V455 h-92 V443 a14 14 90 0 1 14 -14" fill="#FFFFFF" stroke="#FFFFFF" stroke-width="0"/>
		<path d="M118 455 v12 a14 14 90 0 1 -14 14 H40 a14 14 90 0 1 -14 -14 V455 H92" fill="#FFFFFF" stroke="#FFFFFF" stroke-width="0"/>
		<rect x="26" y="429" width="92" height="52" fill="none" rx="14" stroke="#000000" stroke-width="1.5"/>
		<line x1="26" y1="455" x2="118" y2="455" stroke="#000000" stroke-width="1"/>
		<text x="33" y="447.6" fill="#000000" font-family="Trebuchet MS" font-size="14">Favori biere</text>
	</g>
	<text x="147" y="592.85" fill="#000000" font-family="Verdana" font-size="12">0,N</text>
	<text x="196.83" y="263" fill="#000000" font-family="Verdana" font-size="12">0,N</text>
</g>

<!-- Association FAVORI_BRASSERIE -->
<g>
	<line x1="228" y1="649" x2="72" y2="649" stroke="#000000" stroke-width="1"/>
	<line x1="383" y1="455" x2="72" y2="649" stroke="#000000" stroke-width="1"/>
	<g>
		<path d="M117 623 a14 14 90 0 1 14 14 V649 h-118 V637 a14 14 90 0 1 14 -14" fill="#FFFFFF" stroke="#FFFFFF" stroke-width="0"/>
		<path d="M131 649 v12 a14 14 90 0 1 -14 14 H27 a14 14 90 0 1 -14 -14 V649 H118" fill="#FFFFFF" stroke="#FFFFFF" stroke-width="0"/>
		<rect x="13" y="623" width="118" height="52" fill="none" rx="14" stroke="#000000" stroke-width="1.5"/>
		<line x1="13" y1="649" x2="131" y2="649" stroke="#000000" stroke-width="1"/>
		<text x="21" y="641.6" fill="#000000" font-family="Trebuchet MS" font-size="14">Favori brasserie</text>
	</g>
	<text x="147" y="666" fill="#000000" font-family="Verdana" font-size="12">0,N</text>
	<text x="286" y="495.48" fill="#000000" font-family="Verdana" font-size="12">0,N</text>
</g>

<!-- Association ILLUSTRER_PERSONNE -->
<g>
	<line x1="228" y1="649" x2="383" y2="649" stroke="#000000" stroke-width="1"/>
	<line x1="668" y1="455" x2="383" y2="649" stroke="#000000" stroke-width="1"/>
	<g>
		<path d="M434 623 a14 14 90 0 1 14 14 V649 h-130 V637 a14 14 90 0 1 14 -14" fill="#FFFFFF" stroke="#FFFFFF" stroke-width="0"/>
		<path d="M448 649 v12 a14 14 90 0 1 -14 14 H332 a14 14 90 0 1 -14 -14 V649 H130" fill="#FFFFFF" stroke="#FFFFFF" stroke-width="0"/>
		<rect x="318" y="623" width="130" height="52" fill="none" rx="14" stroke="#000000" stroke-width="1.5"/>
		<line x1="318" y1="649" x2="448" y2="649" stroke="#000000" stroke-width="1"/>
		<text x="326" y="641.6" fill="#000000" font-family="Trebuchet MS" font-size="14">Illustrer personne</text>
	</g>
	<text x="287" y="641" fill="#000000" font-family="Verdana" font-size="12">0,1</text>
	<text x="594" y="484.2" fill="#000000" font-family="Verdana" font-size="12">0,N</text>
</g>

<!-- Association ILLUSTRER_AVIS -->
<g>
	<line x1="668" y1="754" x2="383" y2="754" stroke="#000000" stroke-width="1"/>
	<line x1="668" y1="455" x2="383" y2="754" stroke="#000000" stroke-width="1"/>
	<g>
		<path d="M417 728 a14 14 90 0 1 14 14 V754 h-96 V742 a14 14 90 0 1 14 -14" fill="#FFFFFF" stroke="#FFFFFF" stroke-width="0"/>
		<path d="M431 754 v12 a14 14 90 0 1 -14 14 H349 a14 14 90 0 1 -14 -14 V754 H96" fill="#FFFFFF" stroke="#FFFFFF" stroke-width="0"/>
		<rect x="335" y="728" width="96" height="52" fill="none" rx="14" stroke="#000000" stroke-width="1.5"/>
		<line x1="335" y1="754" x2="431" y2="754" stroke="#000000" stroke-width="1"/>
		<text x="343" y="746.6" fill="#000000" font-family="Trebuchet MS" font-size="14">Illustrer avis</text>
	</g>
	<text x="581" y="771" fill="#000000" font-family="Verdana" font-size="12">0,1</text>
	<text x="594" y="503.14" fill="#000000" font-family="Verdana" font-size="12">0,N</text>
</g>

<!-- Association REDIGER -->
<g>
	<line x1="228" y1="649" x2="827" y2="754" stroke="#000000" stroke-width="1"/>
	<line x1="668" y1="754" x2="827" y2="754" stroke="#000000" stroke-width="1"/>
	<g>
		<path d="M845 728 a14 14 90 0 1 14 14 V754 h-64 V742 a14 14 90 0 1 14 -14" fill="#FFFFFF" stroke="#FFFFFF" stroke-width="0"/>
		<path d="M859 754 v12 a14 14 90 0 1 -14 14 H809 a14 14 90 0 1 -14 -14 V754 H64" fill="#FFFFFF" stroke="#FFFFFF" stroke-width="0"/>
		<rect x="795" y="728" width="64" height="52" fill="none" rx="14" stroke="#000000" stroke-width="1.5"/>
		<line x1="795" y1="754" x2="859" y2="754" stroke="#000000" stroke-width="1"/>
		<text x="802" y="746.6" fill="#000000" font-family="Trebuchet MS" font-size="14">Rediger</text>
	</g>
	<text x="287" y="651.79" fill="#000000" font-family="Verdana" font-size="12">0,N</text>
	<text x="734" y="771" fill="#000000" font-family="Verdana" font-size="12">1,1</text>
</g>

<!-- Entity CATEGORIE -->
<g>
	<g>
		<rect x="612" y="9" width="112" height="26" fill="#FFFFFF" stroke="none" stroke-width="0" opacity="1"/>
		<rect x="612" y="35" width="112" height="62" fill="#FFFFFF" stroke="none" stroke-width="0" opacity="1"/>
		<rect x="612" y="9" width="112" height="88" fill="none" stroke="#000000" stroke-width="1.5" opacity="1"/>
		<line x1="612" y1="35" x2="724" y2="35" stroke="#000000" stroke-width="1"/>
	</g>
	<text x="632" y="27.6" fill="#000000" font-family="Trebuchet MS" font-size="14">CATEGORIE</text>
	<text x="617" y="53.6" fill="#000000" font-family="Trebuchet MS" font-size="14">cat_id</text>
	<line x1="617" y1="56" x2="658" y2="56" stroke="#000000" stroke-width="1"/>
	<text x="617" y="71.6" fill="#000000" font-family="Trebuchet MS" font-size="14">cat_nom</text>
	<text x="617" y="89.6" fill="#000000" font-family="Trebuchet MS" font-size="14">cat_description</text>
</g>

<!-- Entity INGREDIENT -->
<g>
	<g>
		<rect x="9" y="149" width="126" height="26" fill="#FFFFFF" stroke="none" stroke-width="0" opacity="1"/>
		<rect x="9" y="175" width="126" height="62" fill="#FFFFFF" stroke="none" stroke-width="0" opacity="1"/>
		<rect x="9" y="149" width="126" height="88" fill="none" stroke="#000000" stroke-width="1.5" opacity="1"/>
		<line x1="9" y1="175" x2="135" y2="175" stroke="#000000" stroke-width="1"/>
	</g>
	<text x="33" y="167.6" fill="#000000" font-family="Trebuchet MS" font-size="14">INGREDIENT</text>
	<text x="14" y="193.6" fill="#000000" font-family="Trebuchet MS" font-size="14">ing_id</text>
	<line x1="14" y1="196" x2="54" y2="196" stroke="#000000" stroke-width="1"/>
	<text x="14" y="211.6" fill="#000000" font-family="Trebuchet MS" font-size="14">ing_nom</text>
	<text x="14" y="229.6" fill="#000000" font-family="Trebuchet MS" font-size="14">ing_est_allergene</text>
</g>

<!-- Entity BIERE -->
<g>
	<g>
		<rect x="167" y="140" width="122" height="26" fill="#FFFFFF" stroke="none" stroke-width="0" opacity="1"/>
		<rect x="167" y="166" width="122" height="80" fill="#FFFFFF" stroke="none" stroke-width="0" opacity="1"/>
		<rect x="167" y="140" width="122" height="106" fill="none" stroke="#000000" stroke-width="1.5" opacity="1"/>
		<line x1="167" y1="166" x2="289" y2="166" stroke="#000000" stroke-width="1"/>
	</g>
	<text x="210" y="158.6" fill="#000000" font-family="Trebuchet MS" font-size="14">BIERE</text>
	<text x="172" y="184.6" fill="#000000" font-family="Trebuchet MS" font-size="14">bie_id</text>
	<line x1="172" y1="187" x2="213" y2="187" stroke="#000000" stroke-width="1"/>
	<text x="172" y="202.6" fill="#000000" font-family="Trebuchet MS" font-size="14">bie_nom</text>
	<text x="172" y="220.6" fill="#000000" font-family="Trebuchet MS" font-size="14">bie_description</text>
	<text x="172" y="238.6" fill="#000000" font-family="Trebuchet MS" font-size="14">bie_degre_alcool</text>
</g>

<!-- Entity POINT_DE_VENTE -->
<g>
	<g>
		<rect x="321" y="122" width="124" height="26" fill="#FFFFFF" stroke="none" stroke-width="0" opacity="1"/>
		<rect x="321" y="148" width="124" height="116" fill="#FFFFFF" stroke="none" stroke-width="0" opacity="1"/>
		<rect x="321" y="122" width="124" height="142" fill="none" stroke="#000000" stroke-width="1.5" opacity="1"/>
		<line x1="321" y1="148" x2="445" y2="148" stroke="#000000" stroke-width="1"/>
	</g>
	<text x="327" y="140.6" fill="#000000" font-family="Trebuchet MS" font-size="14">POINT_DE_VENTE</text>
	<text x="326" y="166.6" fill="#000000" font-family="Trebuchet MS" font-size="14">pdv_id</text>
	<line x1="326" y1="169" x2="370" y2="169" stroke="#000000" stroke-width="1"/>
	<text x="326" y="184.6" fill="#000000" font-family="Trebuchet MS" font-size="14">pdv_nom</text>
	<text x="326" y="202.6" fill="#000000" font-family="Trebuchet MS" font-size="14">pdv_type</text>
	<text x="326" y="220.6" fill="#000000" font-family="Trebuchet MS" font-size="14">pdv_vente_ligne</text>
	<text x="326" y="238.6" fill="#000000" font-family="Trebuchet MS" font-size="14">pdv_telephone</text>
	<text x="326" y="256.6" fill="#000000" font-family="Trebuchet MS" font-size="14">pdv_site_web</text>
</g>

<!-- Entity ADRESSE -->
<g>
	<g>
		<rect x="609" y="122" width="118" height="26" fill="#FFFFFF" stroke="none" stroke-width="0" opacity="1"/>
		<rect x="609" y="148" width="118" height="116" fill="#FFFFFF" stroke="none" stroke-width="0" opacity="1"/>
		<rect x="609" y="122" width="118" height="142" fill="none" stroke="#000000" stroke-width="1.5" opacity="1"/>
		<line x1="609" y1="148" x2="727" y2="148" stroke="#000000" stroke-width="1"/>
	</g>
	<text x="640" y="140.6" fill="#000000" font-family="Trebuchet MS" font-size="14">ADRESSE</text>
	<text x="614" y="166.6" fill="#000000" font-family="Trebuchet MS" font-size="14">adr_id</text>
	<line x1="614" y1="169" x2="656" y2="169" stroke="#000000" stroke-width="1"/>
	<text x="614" y="184.6" fill="#000000" font-family="Trebuchet MS" font-size="14">adr_numero</text>
	<text x="614" y="202.6" fill="#000000" font-family="Trebuchet MS" font-size="14">adr_rue</text>
	<text x="614" y="220.6" fill="#000000" font-family="Trebuchet MS" font-size="14">adr_code_postal</text>
	<text x="614" y="238.6" fill="#000000" font-family="Trebuchet MS" font-size="14">adr_ville</text>
	<text x="614" y="256.6" fill="#000000" font-family="Trebuchet MS" font-size="14">adr_pays</text>
</g>

<!-- Entity BRASSERIE -->
<g>
	<g>
		<rect x="313" y="366" width="140" height="26" fill="#FFFFFF" stroke="none" stroke-width="0" opacity="1"/>
		<rect x="313" y="392" width="140" height="152" fill="#FFFFFF" stroke="none" stroke-width="0" opacity="1"/>
		<rect x="313" y="366" width="140" height="178" fill="none" stroke="#000000" stroke-width="1.5" opacity="1"/>
		<line x1="313" y1="392" x2="453" y2="392" stroke="#000000" stroke-width="1"/>
	</g>
	<text x="350" y="384.6" fill="#000000" font-family="Trebuchet MS" font-size="14">BRASSERIE</text>
	<text x="318" y="410.6" fill="#000000" font-family="Trebuchet MS" font-size="14">bra_id</text>
	<line x1="318" y1="413" x2="360" y2="413" stroke="#000000" stroke-width="1"/>
	<text x="318" y="428.6" fill="#000000" font-family="Trebuchet MS" font-size="14">bra_nom</text>
	<text x="318" y="446.6" fill="#000000" font-family="Trebuchet MS" font-size="14">bra_description</text>
	<text x="318" y="464.6" fill="#000000" font-family="Trebuchet MS" font-size="14">bra_annee_creation</text>
	<text x="318" y="482.6" fill="#000000" font-family="Trebuchet MS" font-size="14">bra_capacite_prod</text>
	<text x="318" y="500.6" fill="#000000" font-family="Trebuchet MS" font-size="14">bra_type_prod</text>
	<text x="318" y="518.6" fill="#000000" font-family="Trebuchet MS" font-size="14">bra_telephone</text>
	<text x="318" y="536.6" fill="#000000" font-family="Trebuchet MS" font-size="14">bra_site_web</text>
</g>

<!-- Entity PHOTO -->
<g>
	<g>
		<rect x="621" y="402" width="94" height="26" fill="#FFFFFF" stroke="none" stroke-width="0" opacity="1"/>
		<rect x="621" y="428" width="94" height="80" fill="#FFFFFF" stroke="none" stroke-width="0" opacity="1"/>
		<rect x="621" y="402" width="94" height="106" fill="none" stroke="#000000" stroke-width="1.5" opacity="1"/>
		<line x1="621" y1="428" x2="715" y2="428" stroke="#000000" stroke-width="1"/>
	</g>
	<text x="645" y="420.6" fill="#000000" font-family="Trebuchet MS" font-size="14">PHOTO</text>
	<text x="626" y="446.6" fill="#000000" font-family="Trebuchet MS" font-size="14">pho_id</text>
	<line x1="626" y1="449" x2="670" y2="449" stroke="#000000" stroke-width="1"/>
	<text x="626" y="464.6" fill="#000000" font-family="Trebuchet MS" font-size="14">pho_url</text>
	<text x="626" y="482.6" fill="#000000" font-family="Trebuchet MS" font-size="14">pho_legende</text>
	<text x="626" y="500.6" fill="#000000" font-family="Trebuchet MS" font-size="14">pho_date</text>
</g>

<!-- Entity PERSONNE -->
<g>
	<g>
		<rect x="174" y="569" width="108" height="26" fill="#FFFFFF" stroke="none" stroke-width="0" opacity="1"/>
		<rect x="174" y="595" width="108" height="134" fill="#FFFFFF" stroke="none" stroke-width="0" opacity="1"/>
		<rect x="174" y="569" width="108" height="160" fill="none" stroke="#000000" stroke-width="1.5" opacity="1"/>
		<line x1="174" y1="595" x2="282" y2="595" stroke="#000000" stroke-width="1"/>
	</g>
	<text x="194" y="587.6" fill="#000000" font-family="Trebuchet MS" font-size="14">PERSONNE</text>
	<text x="179" y="613.6" fill="#000000" font-family="Trebuchet MS" font-size="14">per_id</text>
	<line x1="179" y1="616" x2="221" y2="616" stroke="#000000" stroke-width="1"/>
	<text x="179" y="631.6" fill="#000000" font-family="Trebuchet MS" font-size="14">per_email</text>
	<text x="179" y="649.6" fill="#000000" font-family="Trebuchet MS" font-size="14">per_nom</text>
	<text x="179" y="667.6" fill="#000000" font-family="Trebuchet MS" font-size="14">per_prenom</text>
	<text x="179" y="685.6" fill="#000000" font-family="Trebuchet MS" font-size="14">per_mdp</text>
	<text x="179" y="703.6" fill="#000000" font-family="Trebuchet MS" font-size="14">per_role</text>
	<text x="179" y="721.6" fill="#000000" font-family="Trebuchet MS" font-size="14">per_date_inscr</text>
</g>

<!-- Entity AVIS -->
<g>
	<g>
		<rect x="607" y="683" width="122" height="26" fill="#FFFFFF" stroke="none" stroke-width="0" opacity="1"/>
		<rect x="607" y="709" width="122" height="116" fill="#FFFFFF" stroke="none" stroke-width="0" opacity="1"/>
		<rect x="607" y="683" width="122" height="142" fill="none" stroke="#000000" stroke-width="1.5" opacity="1"/>
		<line x1="607" y1="709" x2="729" y2="709" stroke="#000000" stroke-width="1"/>
	</g>
	<text x="654" y="701.6" fill="#000000" font-family="Trebuchet MS" font-size="14">AVIS</text>
	<text x="612" y="727.6" fill="#000000" font-family="Trebuchet MS" font-size="14">avi_id</text>
	<line x1="612" y1="730" x2="651" y2="730" stroke="#000000" stroke-width="1"/>
	<text x="612" y="745.6" fill="#000000" font-family="Trebuchet MS" font-size="14">avi_note</text>
	<text x="612" y="763.6" fill="#000000" font-family="Trebuchet MS" font-size="14">avi_commentaire</text>
	<text x="612" y="781.6" fill="#000000" font-family="Trebuchet MS" font-size="14">avi_date</text>
	<text x="612" y="799.6" fill="#000000" font-family="Trebuchet MS" font-size="14">avi_signale</text>
	<text x="612" y="817.6" fill="#000000" font-family="Trebuchet MS" font-size="14">avi_reponse</text>
</g>
</svg>