<?xml version="1.0" encoding="utf-8"?>
<!-- Generated by Mocodo 4.3.3 -->
<svg width="952" height="791" viewBox="0 0 952 791" xmlns="http://www.w3.org/2000/svg">
<rect x="0" y="0" width="952" height="791" fill="#FFFFFF" stroke="none" stroke-width="0"/>

<!-- Entity COMPOSITION -->
<g>
	<g>
		<rect x="50" y="18" width="104" height="26" fill="#FFFFFF" stroke="none" stroke-width="0" opacity="1"/>
		<rect x="50" y="44" width="104" height="44" fill="#FFFFFF" stroke="none" stroke-width="0" opacity="1"/>
		<rect x="50" y="18" width="104" height="70" fill="none" stroke="#000000" stroke-width="1.5" opacity="1"/>
		<line x1="50" y1="44" x2="154" y2="44" stroke="#000000" stroke-width="1"/>
	</g>
	<text x="63" y="36.6" fill="#000000" font-family="Trebuchet MS" font-size="14">composition</text>
	<text x="55" y="62.6" fill="#000000" font-family="Trebuchet MS" font-size="14">#beer_id</text>
	<line x1="55" y1="65" x2="112" y2="65" stroke="#000000" stroke-width="1"/>
	<text x="55" y="80.6" fill="#000000" font-family="Trebuchet MS" font-size="14">#ingredient_id</text>
	<line x1="55" y1="83" x2="149" y2="83" stroke="#000000" stroke-width="1"/>
</g>

<!-- Entity SALE -->
<g>
	<g>
		<rect x="259" y="9" width="78" height="26" fill="#FFFFFF" stroke="none" stroke-width="0" opacity="1"/>
		<rect x="259" y="35" width="78" height="62" fill="#FFFFFF" stroke="none" stroke-width="0" opacity="1"/>
		<rect x="259" y="9" width="78" height="88" fill="none" stroke="#000000" stroke-width="1.5" opacity="1"/>
		<line x1="259" y1="35" x2="337" y2="35" stroke="#000000" stroke-width="1"/>
	</g>
	<text x="285" y="27.6" fill="#000000" font-family="Trebuchet MS" font-size="14">sale</text>
	<text x="264" y="53.6" fill="#000000" font-family="Trebuchet MS" font-size="14">#outlet_id</text>
	<line x1="264" y1="56" x2="331" y2="56" stroke="#000000" stroke-width="1"/>
	<text x="264" y="71.6" fill="#000000" font-family="Trebuchet MS" font-size="14">#beer_id</text>
	<line x1="264" y1="74" x2="321" y2="74" stroke="#000000" stroke-width="1"/>
	<text x="264" y="89.6" fill="#000000" font-family="Trebuchet MS" font-size="14">price</text>
</g>

<!-- Entity CATEGORIZATION -->
<g>
	<g>
		<rect x="646" y="18" width="104" height="26" fill="#FFFFFF" stroke="none" stroke-width="0" opacity="1"/>
		<rect x="646" y="44" width="104" height="44" fill="#FFFFFF" stroke="none" stroke-width="0" opacity="1"/>
		<rect x="646" y="18" width="104" height="70" fill="none" stroke="#000000" stroke-width="1.5" opacity="1"/>
		<line x1="646" y1="44" x2="750" y2="44" stroke="#000000" stroke-width="1"/>
	</g>
	<text x="651" y="36.6" fill="#000000" font-family="Trebuchet MS" font-size="14">categorization</text>
	<text x="651" y="62.6" fill="#000000" font-family="Trebuchet MS" font-size="14">#beer_id</text>
	<line x1="651" y1="65" x2="708" y2="65" stroke="#000000" stroke-width="1"/>
	<text x="651" y="80.6" fill="#000000" font-family="Trebuchet MS" font-size="14">#category_id</text>
	<line x1="651" y1="83" x2="735" y2="83" stroke="#000000" stroke-width="1"/>
</g>

<!-- Entity CATEGORY -->
<g>
	<g>
		<rect x="824" y="9" width="84" height="26" fill="#FFFFFF" stroke="none" stroke-width="0" opacity="1"/>
		<rect x="824" y="35" width="84" height="62" fill="#FFFFFF" stroke="none" stroke-width="0" opacity="1"/>
		<rect x="824" y="9" width="84" height="88" fill="none" stroke="#000000" stroke-width="1.5" opacity="1"/>
		<line x1="824" y1="35" x2="908" y2="35" stroke="#000000" stroke-width="1"/>
	</g>
	<text x="838" y="27.6" fill="#000000" font-family="Trebuchet MS" font-size="14">category</text>
	<text x="829" y="53.6" fill="#000000" font-family="Trebuchet MS" font-size="14">id</text>
	<line x1="829" y1="56" x2="842" y2="56" stroke="#000000" stroke-width="1"/>
	<text x="829" y="71.6" fill="#000000" font-family="Trebuchet MS" font-size="14">name</text>
	<text x="829" y="89.6" fill="#000000" font-family="Trebuchet MS" font-size="14">description</text>
</g>

<!-- Entity INGREDIENT -->
<g>
	<g>
		<rect x="61" y="149" width="82" height="26" fill="#FFFFFF" stroke="none" stroke-width="0" opacity="1"/>
		<rect x="61" y="175" width="82" height="62" fill="#FFFFFF" stroke="none" stroke-width="0" opacity="1"/>
		<rect x="61" y="149" width="82" height="88" fill="none" stroke="#000000" stroke-width="1.5" opacity="1"/>
		<line x1="61" y1="175" x2="143" y2="175" stroke="#000000" stroke-width="1"/>
	</g>
	<text x="69" y="167.6" fill="#000000" font-family="Trebuchet MS" font-size="14">ingredient</text>
	<text x="66" y="193.6" fill="#000000" font-family="Trebuchet MS" font-size="14">id</text>
	<line x1="66" y1="196" x2="79" y2="196" stroke="#000000" stroke-width="1"/>
	<text x="66" y="211.6" fill="#000000" font-family="Trebuchet MS" font-size="14">name</text>
	<text x="66" y="229.6" fill="#000000" font-family="Trebuchet MS" font-size="14">is_allergen</text>
</g>

<!-- Entity BEER -->
<g>
	<g>
		<rect x="240" y="131" width="116" height="26" fill="#FFFFFF" stroke="none" stroke-width="0" opacity="1"/>
		<rect x="240" y="157" width="116" height="98" fill="#FFFFFF" stroke="none" stroke-width="0" opacity="1"/>
		<rect x="240" y="131" width="116" height="124" fill="none" stroke="#000000" stroke-width="1.5" opacity="1"/>
		<line x1="240" y1="157" x2="356" y2="157" stroke="#000000" stroke-width="1"/>
	</g>
	<text x="283" y="149.6" fill="#000000" font-family="Trebuchet MS" font-size="14">beer</text>
	<text x="245" y="175.6" fill="#000000" font-family="Trebuchet MS" font-size="14">id</text>
	<line x1="245" y1="178" x2="258" y2="178" stroke="#000000" stroke-width="1"/>
	<text x="245" y="193.6" fill="#000000" font-family="Trebuchet MS" font-size="14">name</text>
	<text x="245" y="211.6" fill="#000000" font-family="Trebuchet MS" font-size="14">description</text>
	<text x="245" y="229.6" fill="#000000" font-family="Trebuchet MS" font-size="14">alcohol_content</text>
	<text x="245" y="247.6" fill="#000000" font-family="Trebuchet MS" font-size="14">#brewery_id</text>
</g>

<!-- Entity OUTLET -->
<g>
	<g>
		<rect x="458" y="104" width="92" height="26" fill="#FFFFFF" stroke="none" stroke-width="0" opacity="1"/>
		<rect x="458" y="130" width="92" height="152" fill="#FFFFFF" stroke="none" stroke-width="0" opacity="1"/>
		<rect x="458" y="104" width="92" height="178" fill="none" stroke="#000000" stroke-width="1.5" opacity="1"/>
		<line x1="458" y1="130" x2="550" y2="130" stroke="#000000" stroke-width="1"/>
	</g>
	<text x="484" y="122.6" fill="#000000" font-family="Trebuchet MS" font-size="14">outlet</text>
	<text x="463" y="148.6" fill="#000000" font-family="Trebuchet MS" font-size="14">id</text>
	<line x1="463" y1="151" x2="476" y2="151" stroke="#000000" stroke-width="1"/>
	<text x="463" y="166.6" fill="#000000" font-family="Trebuchet MS" font-size="14">name</text>
	<text x="463" y="184.6" fill="#000000" font-family="Trebuchet MS" font-size="14">type</text>
	<text x="463" y="202.6" fill="#000000" font-family="Trebuchet MS" font-size="14">online_sales</text>
	<text x="463" y="220.6" fill="#000000" font-family="Trebuchet MS" font-size="14">phone</text>
	<text x="463" y="238.6" fill="#000000" font-family="Trebuchet MS" font-size="14">website</text>
	<text x="463" y="256.6" fill="#000000" font-family="Trebuchet MS" font-size="14">#address_id</text>
	<text x="463" y="274.6" fill="#000000" font-family="Trebuchet MS" font-size="14">#brewery_id</text>
</g>

<!-- Entity ADDRESS -->
<g>
	<g>
		<rect x="832" y="122" width="68" height="26" fill="#FFFFFF" stroke="none" stroke-width="0" opacity="1"/>
		<rect x="832" y="148" width="68" height="116" fill="#FFFFFF" stroke="none" stroke-width="0" opacity="1"/>
		<rect x="832" y="122" width="68" height="142" fill="none" stroke="#000000" stroke-width="1.5" opacity="1"/>
		<line x1="832" y1="148" x2="900" y2="148" stroke="#000000" stroke-width="1"/>
	</g>
	<text x="841" y="140.6" fill="#000000" font-family="Trebuchet MS" font-size="14">address</text>
	<text x="837" y="166.6" fill="#000000" font-family="Trebuchet MS" font-size="14">id</text>
	<line x1="837" y1="169" x2="850" y2="169" stroke="#000000" stroke-width="1"/>
	<text x="837" y="184.6" fill="#000000" font-family="Trebuchet MS" font-size="14">number</text>
	<text x="837" y="202.6" fill="#000000" font-family="Trebuchet MS" font-size="14">street</text>
	<text x="837" y="220.6" fill="#000000" font-family="Trebuchet MS" font-size="14">zip_code</text>
	<text x="837" y="238.6" fill="#000000" font-family="Trebuchet MS" font-size="14">city</text>
	<text x="837" y="256.6" fill="#000000" font-family="Trebuchet MS" font-size="14">country</text>
</g>

<!-- Entity ILLUSTRATION_BREWERY -->
<g>
	<g>
		<rect x="227" y="280" width="142" height="26" fill="#FFFFFF" stroke="none" stroke-width="0" opacity="1"/>
		<rect x="227" y="306" width="142" height="44" fill="#FFFFFF" stroke="none" stroke-width="0" opacity="1"/>
		<rect x="227" y="280" width="142" height="70" fill="none" stroke="#000000" stroke-width="1.5" opacity="1"/>
		<line x1="227" y1="306" x2="369" y2="306" stroke="#000000" stroke-width="1"/>
	</g>
	<text x="232" y="298.6" fill="#000000" font-family="Trebuchet MS" font-size="14">illustration_brewery</text>
	<text x="232" y="324.6" fill="#000000" font-family="Trebuchet MS" font-size="14">#brewery_id</text>
	<line x1="232" y1="327" x2="313" y2="327" stroke="#000000" stroke-width="1"/>
	<text x="232" y="342.6" fill="#000000" font-family="Trebuchet MS" font-size="14">#photo_id</text>
	<line x1="232" y1="345" x2="297" y2="345" stroke="#000000" stroke-width="1"/>
</g>

<!-- Entity ILLUSTRATION_BEER -->
<g>
	<g>
		<rect x="639" y="280" width="118" height="26" fill="#FFFFFF" stroke="none" stroke-width="0" opacity="1"/>
		<rect x="639" y="306" width="118" height="44" fill="#FFFFFF" stroke="none" stroke-width="0" opacity="1"/>
		<rect x="639" y="280" width="118" height="70" fill="none" stroke="#000000" stroke-width="1.5" opacity="1"/>
		<line x1="639" y1="306" x2="757" y2="306" stroke="#000000" stroke-width="1"/>
	</g>
	<text x="644" y="298.6" fill="#000000" font-family="Trebuchet MS" font-size="14">illustration_beer</text>
	<text x="644" y="324.6" fill="#000000" font-family="Trebuchet MS" font-size="14">#beer_id</text>
	<line x1="644" y1="327" x2="701" y2="327" stroke="#000000" stroke-width="1"/>
	<text x="644" y="342.6" fill="#000000" font-family="Trebuchet MS" font-size="14">#photo_id</text>
	<line x1="644" y1="345" x2="709" y2="345" stroke="#000000" stroke-width="1"/>
</g>

<!-- Entity FAVORITE_BEER -->
<g>
	<g>
		<rect x="52" y="403" width="100" height="26" fill="#FFFFFF" stroke="none" stroke-width="0" opacity="1"/>
		<rect x="52" y="429" width="100" height="44" fill="#FFFFFF" stroke="none" stroke-width="0" opacity="1"/>
		<rect x="52" y="403" width="100" height="70" fill="none" stroke="#000000" stroke-width="1.5" opacity="1"/>
		<line x1="52" y1="429" x2="152" y2="429" stroke="#000000" stroke-width="1"/>
	</g>
	<text x="58" y="421.6" fill="#000000" font-family="Trebuchet MS" font-size="14">favorite_beer</text>
	<text x="57" y="447.6" fill="#000000" font-family="Trebuchet MS" font-size="14">#account_id</text>
	<line x1="57" y1="450" x2="136" y2="450" stroke="#000000" stroke-width="1"/>
	<text x="57" y="465.6" fill="#000000" font-family="Trebuchet MS" font-size="14">#beer_id</text>
	<line x1="57" y1="468" x2="114" y2="468" stroke="#000000" stroke-width="1"/>
</g>

<!-- Entity BREWERY -->
<g>
	<g>
		<rect x="433" y="340" width="142" height="26" fill="#FFFFFF" stroke="none" stroke-width="0" opacity="1"/>
		<rect x="433" y="366" width="142" height="170" fill="#FFFFFF" stroke="none" stroke-width="0" opacity="1"/>
		<rect x="433" y="340" width="142" height="196" fill="none" stroke="#000000" stroke-width="1.5" opacity="1"/>
		<line x1="433" y1="366" x2="575" y2="366" stroke="#000000" stroke-width="1"/>
	</g>
	<text x="477" y="358.6" fill="#000000" font-family="Trebuchet MS" font-size="14">brewery</text>
	<text x="438" y="384.6" fill="#000000" font-family="Trebuchet MS" font-size="14">id</text>
	<line x1="438" y1="387" x2="451" y2="387" stroke="#000000" stroke-width="1"/>
	<text x="438" y="402.6" fill="#000000" font-family="Trebuchet MS" font-size="14">name</text>
	<text x="438" y="420.6" fill="#000000" font-family="Trebuchet MS" font-size="14">description</text>
	<text x="438" y="438.6" fill="#000000" font-family="Trebuchet MS" font-size="14">founding_year</text>
	<text x="438" y="456.6" fill="#000000" font-family="Trebuchet MS" font-size="14">production_capacity</text>
	<text x="438" y="474.6" fill="#000000" font-family="Trebuchet MS" font-size="14">production_type</text>
	<text x="438" y="492.6" fill="#000000" font-family="Trebuchet MS" font-size="14">phone</text>
	<text x="438" y="510.6" fill="#000000" font-family="Trebuchet MS" font-size="14">website</text>
	<text x="438" y="528.6" fill="#000000" font-family="Trebuchet MS" font-size="14">#address_id</text>
</g>

<!-- Entity PHOTO -->
<g>
	<g>
		<rect x="825" y="385" width="82" height="26" fill="#FFFFFF" stroke="none" stroke-width="0" opacity="1"/>
		<rect x="825" y="411" width="82" height="80" fill="#FFFFFF" stroke="none" stroke-width="0" opacity="1"/>
		<rect x="825" y="385" width="82" height="106" fill="none" stroke="#000000" stroke-width="1.5" opacity="1"/>
		<line x1="825" y1="411" x2="907" y2="411" stroke="#000000" stroke-width="1"/>
	</g>
	<text x="847" y="403.6" fill="#000000" font-family="Trebuchet MS" font-size="14">photo</text>
	<text x="830" y="429.6" fill="#000000" font-family="Trebuchet MS" font-size="14">id</text>
	<line x1="830" y1="432" x2="843" y2="432" stroke="#000000" stroke-width="1"/>
	<text x="830" y="447.6" fill="#000000" font-family="Trebuchet MS" font-size="14">url</text>
	<text x="830" y="465.6" fill="#000000" font-family="Trebuchet MS" font-size="14">caption</text>
	<text x="830" y="483.6" fill="#000000" font-family="Trebuchet MS" font-size="14">created_at</text>
</g>

<!-- Entity FAVORITE_BREWERY -->
<g>
	<g>
		<rect x="41" y="526" width="122" height="26" fill="#FFFFFF" stroke="none" stroke-width="0" opacity="1"/>
		<rect x="41" y="552" width="122" height="44" fill="#FFFFFF" stroke="none" stroke-width="0" opacity="1"/>
		<rect x="41" y="526" width="122" height="70" fill="none" stroke="#000000" stroke-width="1.5" opacity="1"/>
		<line x1="41" y1="552" x2="163" y2="552" stroke="#000000" stroke-width="1"/>
	</g>
	<text x="46" y="544.6" fill="#000000" font-family="Trebuchet MS" font-size="14">favorite_brewery</text>
	<text x="46" y="570.6" fill="#000000" font-family="Trebuchet MS" font-size="14">#account_id</text>
	<line x1="46" y1="573" x2="125" y2="573" stroke="#000000" stroke-width="1"/>
	<text x="46" y="588.6" fill="#000000" font-family="Trebuchet MS" font-size="14">#brewery_id</text>
	<line x1="46" y1="591" x2="127" y2="591" stroke="#000000" stroke-width="1"/>
</g>

<!-- Entity ACCOUNT -->
<g>
	<g>
		<rect x="257" y="472" width="82" height="26" fill="#FFFFFF" stroke="none" stroke-width="0" opacity="1"/>
		<rect x="257" y="498" width="82" height="152" fill="#FFFFFF" stroke="none" stroke-width="0" opacity="1"/>
		<rect x="257" y="472" width="82" height="178" fill="none" stroke="#000000" stroke-width="1.5" opacity="1"/>
		<line x1="257" y1="498" x2="339" y2="498" stroke="#000000" stroke-width="1"/>
	</g>
	<text x="272" y="490.6" fill="#000000" font-family="Trebuchet MS" font-size="14">account</text>
	<text x="262" y="516.6" fill="#000000" font-family="Trebuchet MS" font-size="14">id</text>
	<line x1="262" y1="519" x2="275" y2="519" stroke="#000000" stroke-width="1"/>
	<text x="262" y="534.6" fill="#000000" font-family="Trebuchet MS" font-size="14">email</text>
	<text x="262" y="552.6" fill="#000000" font-family="Trebuchet MS" font-size="14">last_name</text>
	<text x="262" y="570.6" fill="#000000" font-family="Trebuchet MS" font-size="14">first_name</text>
	<text x="262" y="588.6" fill="#000000" font-family="Trebuchet MS" font-size="14">password</text>
	<text x="262" y="606.6" fill="#000000" font-family="Trebuchet MS" font-size="14">role</text>
	<text x="262" y="624.6" fill="#000000" font-family="Trebuchet MS" font-size="14">created_at</text>
	<text x="262" y="642.6" fill="#000000" font-family="Trebuchet MS" font-size="14">#photo_id</text>
</g>

<!-- Entity REVIEW -->
<g>
	<g>
		<rect x="821" y="586" width="90" height="26" fill="#FFFFFF" stroke="none" stroke-width="0" opacity="1"/>
		<rect x="821" y="612" width="90" height="170" fill="#FFFFFF" stroke="none" stroke-width="0" opacity="1"/>
		<rect x="821" y="586" width="90" height="196" fill="none" stroke="#000000" stroke-width="1.5" opacity="1"/>
		<line x1="821" y1="612" x2="911" y2="612" stroke="#000000" stroke-width="1"/>
	</g>
	<text x="844" y="604.6" fill="#000000" font-family="Trebuchet MS" font-size="14">review</text>
	<text x="826" y="630.6" fill="#000000" font-family="Trebuchet MS" font-size="14">id</text>
	<line x1="826" y1="633" x2="839" y2="633" stroke="#000000" stroke-width="1"/>
	<text x="826" y="648.6" fill="#000000" font-family="Trebuchet MS" font-size="14">rating</text>
	<text x="826" y="666.6" fill="#000000" font-family="Trebuchet MS" font-size="14">comment</text>
	<text x="826" y="684.6" fill="#000000" font-family="Trebuchet MS" font-size="14">created_at</text>
	<text x="826" y="702.6" fill="#000000" font-family="Trebuchet MS" font-size="14">reported</text>
	<text x="826" y="720.6" fill="#000000" font-family="Trebuchet MS" font-size="14">reply</text>
	<text x="826" y="738.6" fill="#000000" font-family="Trebuchet MS" font-size="14">#beer_id</text>
	<text x="826" y="756.6" fill="#000000" font-family="Trebuchet MS" font-size="14">#photo_id</text>
	<text x="826" y="774.6" fill="#000000" font-family="Trebuchet MS" font-size="14">#account_id</text>
</g>

<!-- Link from &quot;id&quot; (COMPOSITION) to &quot;id&quot; (BEER) -->
<path d="M154 58 C197 114.5 182.67 171 240 171" fill="none" stroke="#000000" stroke-width="1"/>
<polygon points="240 171 228 177 232 171 228 165" fill="#000000" stroke-width="0"/>
<circle cx="154" cy="58" r="1.5" stroke="#000000" stroke-width="1.5" fill="#000000"/>

<!-- Link from &quot;id&quot; (COMPOSITION) to &quot;id&quot; (INGREDIENT) -->
<path d="M50 76 C-4 132.5 7 189 61 189" fill="none" stroke="#000000" stroke-width="1"/>
<polygon points="61 189 49 195 53 189 49 183" fill="#000000" stroke-width="0"/>
<circle cx="50" cy="76" r="1.5" stroke="#000000" stroke-width="1.5" fill="#000000"/>

<!-- Link from &quot;id&quot; (SALE) to &quot;id&quot; (OUTLET) -->
<path d="M337 49 C397.5 96.5 377.33 144 458 144" fill="none" stroke="#000000" stroke-width="1"/>
<polygon points="458 144 446 150 450 144 446 138" fill="#000000" stroke-width="0"/>
<circle cx="337" cy="49" r="1.5" stroke="#000000" stroke-width="1.5" fill="#000000"/>

<!-- Link from &quot;id&quot; (SALE) to &quot;id&quot; (BEER) -->
<path d="M259 67 C205 119 186 171 240 171" fill="none" stroke="#000000" stroke-width="1"/>
<polygon points="240 171 228 177 232 171 228 165" fill="#000000" stroke-width="0"/>
<circle cx="259" cy="67" r="1.5" stroke="#000000" stroke-width="1.5" fill="#000000"/>

<!-- Link from &quot;id&quot; (CATEGORIZATION) to &quot;id&quot; (BEER) -->
<path d="M646 58 C501 114.5 549.33 171 356 171" fill="none" stroke="#000000" stroke-width="1"/>
<polygon points="356 171 368 165 364 171 368 177" fill="#000000" stroke-width="0"/>
<circle cx="646" cy="58" r="1.5" stroke="#000000" stroke-width="1.5" fill="#000000"/>

<!-- Link from &quot;id&quot; (CATEGORIZATION) to &quot;id&quot; (CATEGORY) -->
<path d="M750 76 C787 62.5 774.67 49 824 49" fill="none" stroke="#000000" stroke-width="1"/>
<polygon points="824 49 812 55 816 49 812 43" fill="#000000" stroke-width="0"/>
<circle cx="750" cy="76" r="1.5" stroke="#000000" stroke-width="1.5" fill="#000000"/>

<!-- Link from &quot;id&quot; (BEER) to &quot;id&quot; (BREWERY) -->
<path d="M356 243 C394.5 311.5 381.67 380 433 380" fill="none" stroke="#000000" stroke-width="1"/>
<polygon points="433 380 421 386 425 380 421 374" fill="#000000" stroke-width="0"/>
<circle cx="356" cy="243" r="1.5" stroke="#000000" stroke-width="1.5" fill="#000000"/>

<!-- Link from &quot;id&quot; (OUTLET) to &quot;id&quot; (ADDRESS) -->
<path d="M550 252 C691 207 644 162 832 162" fill="none" stroke="#000000" stroke-width="1"/>
<polygon points="832 162 820 168 824 162 820 156" fill="#000000" stroke-width="0"/>
<circle cx="550" cy="252" r="1.5" stroke="#000000" stroke-width="1.5" fill="#000000"/>

<!-- Link from &quot;id&quot; (OUTLET) to &quot;id&quot; (BREWERY) -->
<path d="M458 270 C404 325 379 380 433 380" fill="none" stroke="#000000" stroke-width="1"/>
<polygon points="433 380 421 386 425 380 421 374" fill="#000000" stroke-width="0"/>
<circle cx="458" cy="270" r="1.5" stroke="#000000" stroke-width="1.5" fill="#000000"/>

<!-- Link from &quot;id&quot; (ILLUSTRATION_BREWERY) to &quot;id&quot; (BREWERY) -->
<path d="M369 320 C401 350 390.33 380 433 380" fill="none" stroke="#000000" stroke-width="1"/>
<polygon points="433 380 421 386 425 380 421 374" fill="#000000" stroke-width="0"/>
<circle cx="369" cy="320" r="1.5" stroke="#000000" stroke-width="1.5" fill="#000000"/>

<!-- Link from &quot;id&quot; (ILLUSTRATION_BREWERY) to &quot;id&quot; (PHOTO) -->
<path d="M369 338 C597 381.5 521 425 825 425" fill="none" stroke="#000000" stroke-width="1"/>
<polygon points="825 425 813 431 817 425 813 419" fill="#000000" stroke-width="0"/>
<circle cx="369" cy="338" r="1.5" stroke="#000000" stroke-width="1.5" fill="#000000"/>

<!-- Link from &quot;id&quot; (ILLUSTRATION_BEER) to &quot;id&quot; (BEER) -->
<path d="M639 320 C497.5 245.5 544.67 171 356 171" fill="none" stroke="#000000" stroke-width="1"/>
<polygon points="356 171 368 165 364 171 368 177" fill="#000000" stroke-width="0"/>
<circle cx="639" cy="320" r="1.5" stroke="#000000" stroke-width="1.5" fill="#000000"/>

<!-- Link from &quot;id&quot; (ILLUSTRATION_BEER) to &quot;id&quot; (PHOTO) -->
<path d="M757 338 C791 381.5 779.67 425 825 425" fill="none" stroke="#000000" stroke-width="1"/>
<polygon points="825 425 813 431 817 425 813 419" fill="#000000" stroke-width="0"/>
<circle cx="757" cy="338" r="1.5" stroke="#000000" stroke-width="1.5" fill="#000000"/>

<!-- Link from &quot;id&quot; (FAVORITE_BEER) to &quot;id&quot; (ACCOUNT) -->
<path d="M152 443 C204.5 477.5 187 512 257 512" fill="none" stroke="#000000" stroke-width="1"/>
<polygon points="257 512 245 518 249 512 245 506" fill="#000000" stroke-width="0"/>
<circle cx="152" cy="443" r="1.5" stroke="#000000" stroke-width="1.5" fill="#000000"/>

<!-- Link from &quot;id&quot; (FAVORITE_BEER) to &quot;id&quot; (BEER) -->
<path d="M152 461 C196 316 181.33 171 240 171" fill="none" stroke="#000000" stroke-width="1"/>
<polygon points="240 171 228 177 232 171 228 165" fill="#000000" stroke-width="0"/>
<circle cx="152" cy="461" r="1.5" stroke="#000000" stroke-width="1.5" fill="#000000"/>

<!-- Link from &quot;id&quot; (BREWERY) to &quot;id&quot; (ADDRESS) -->
<path d="M575 524 C703.5 343 660.67 162 832 162" fill="none" stroke="#000000" stroke-width="1"/>
<polygon points="832 162 820 168 824 162 820 156" fill="#000000" stroke-width="0"/>
<circle cx="575" cy="524" r="1.5" stroke="#000000" stroke-width="1.5" fill="#000000"/>

<!-- Link from &quot;id&quot; (FAVORITE_BREWERY) to &quot;id&quot; (ACCOUNT) -->
<path d="M163 566 C210 539 194.33 512 257 512" fill="none" stroke="#000000" stroke-width="1"/>
<polygon points="257 512 245 518 249 512 245 506" fill="#000000" stroke-width="0"/>
<circle cx="163" cy="566" r="1.5" stroke="#000000" stroke-width="1.5" fill="#000000"/>

<!-- Link from &quot;id&quot; (FAVORITE_BREWERY) to &quot;id&quot; (BREWERY) -->
<path d="M163 584 C298 482 253 380 433 380" fill="none" stroke="#000000" stroke-width="1"/>
<polygon points="433 380 421 386 425 380 421 374" fill="#000000" stroke-width="0"/>
<circle cx="163" cy="584" r="1.5" stroke="#000000" stroke-width="1.5" fill="#000000"/>

<!-- Link from &quot;id&quot; (ACCOUNT) to &quot;id&quot; (PHOTO) -->
<path d="M339 638 C582 531.5 501 425 825 425" fill="none" stroke="#000000" stroke-width="1"/>
<polygon points="825 425 813 431 817 425 813 419" fill="#000000" stroke-width="0"/>
<circle cx="339" cy="638" r="1.5" stroke="#000000" stroke-width="1.5" fill="#000000"/>

<!-- Link from &quot;id&quot; (REVIEW) to &quot;id&quot; (BEER) -->
<path d="M821 734 C588.5 452.5 666 171 356 171" fill="none" stroke="#000000" stroke-width="1"/>
<polygon points="356 171 368 165 364 171 368 177" fill="#000000" stroke-width="0"/>
<circle cx="821" cy="734" r="1.5" stroke="#000000" stroke-width="1.5" fill="#000000"/>

<!-- Link from &quot;id&quot; (REVIEW) to &quot;id&quot; (PHOTO) -->
<path d="M821 752 C767 588.5 771 425 825 425" fill="none" stroke="#000000" stroke-width="1"/>
<polygon points="825 425 813 431 817 425 813 419" fill="#000000" stroke-width="0"/>
<circle cx="821" cy="752" r="1.5" stroke="#000000" stroke-width="1.5" fill="#000000"/>

<!-- Link from &quot;id&quot; (REVIEW) to &quot;id&quot; (ACCOUNT) -->
<path d="M821 770 C580 641 660.33 512 339 512" fill="none" stroke="#000000" stroke-width="1"/>
<polygon points="339 512 351 506 347 512 351 518" fill="#000000" stroke-width="0"/>
<circle cx="821" cy="770" r="1.5" stroke="#000000" stroke-width="1.5" fill="#000000"/>
</svg>